# xmcd
#
# Track frame offsets:
#	150
#	14430
#	35421
#	55054
#	76987
#	99062
#	122181
#	144807
#	168929
#	197082
#
# Disc length: 2947 seconds
# Revision: 1
# Processed by: cddbd v1.5.2PL0 Copyright (c) Steve Scherf et al.
# Submitted via: dBpowerAMP V12.0
#
DISCID=730b810a
DTITLE=JJ Grey and Mofro - This River
DYEAR=2013
DGENRE=Blues
TTITLE0=Your Lady, She's Shady
TTITLE1=Somebody Else
TTITLE2=Tame a Wild One
TTITLE3=99 Shades of Crazy
TTITLE4=The Ballad of Larry Webb
TTITLE5=Florabama
TTITLE6=Standing on the Edge
TTITLE7=Write a Letter
TTITLE8=Harp and Drums
TTITLE9=This River
EXTD=
EXTT0=
EXTT1=
EXTT2=
EXTT3=
EXTT4=
EXTT5=
EXTT6=
EXTT7=
EXTT8=
EXTT9=
PLAYORDER=
